<?xml version="1.0" encoding="UTF-8"?>
<svg version="1.1" xmlns="http://www.w3.org/2000/svg" width="64" height="64">
<path d="M0 0 C3.86591028 0.97084387 6.22178438 3.56220115 8.93614197 6.35351562 C9.54631165 6.95603149 10.15648132 7.55854736 10.78514099 8.17932129 C12.06537735 9.45413188 13.335639 10.73902945 14.59629822 12.03320312 C16.52470482 14.00446321 18.49209596 15.9293727 20.46739197 17.85351562 C21.70954833 19.10095878 22.94922055 20.3508815 24.18614197 21.60351562 C24.77351135 22.17469116 25.36088074 22.7458667 25.96604919 23.33435059 C28.90078308 26.40747569 30.39655476 28.48163225 30.52012634 32.81640625 C30.02989197 36.50976562 30.02989197 36.50976562 28.02989197 38.50976562 C26.70989197 38.50976562 25.38989197 38.50976562 24.02989197 38.50976562 C24.04560242 39.43257324 24.04560242 39.43257324 24.06163025 40.37402344 C24.10327892 43.16922906 24.12924613 45.96436928 24.15489197 48.75976562 C24.17164978 49.72785156 24.18840759 50.6959375 24.20567322 51.69335938 C24.21534119 53.09521484 24.21534119 53.09521484 24.22520447 54.52539062 C24.24091492 55.81364746 24.24091492 55.81364746 24.25694275 57.12792969 C24.0091768 59.72707446 23.42518266 61.3142797 22.02989197 63.50976562 C18.84442908 65.10249707 15.39789849 64.61118396 11.90489197 64.57226562 C9.30614197 64.55164063 6.70739197 64.53101562 4.02989197 64.50976562 C3.53489197 55.59976563 3.53489197 55.59976563 3.02989197 46.50976562 C0.21000038 44.91348083 0.21000038 44.91348083 -6.97010803 45.50976562 C-7.30010803 51.77976563 -7.63010803 58.04976562 -7.97010803 64.50976562 C-11.83729553 64.60257813 -11.83729553 64.60257813 -15.78260803 64.69726562 C-16.99460876 64.73823364 -16.99460876 64.73823364 -18.23109436 64.7800293 C-23.48210552 64.84129439 -23.48210552 64.84129439 -25.91932678 63.18554688 C-27.87317193 60.06956335 -28.09053073 57.41612977 -28.06776428 53.84179688 C-28.06454163 52.94912109 -28.06131897 52.05644531 -28.05799866 51.13671875 C-28.04961975 50.20794922 -28.04124084 49.27917969 -28.03260803 48.32226562 C-28.02809631 47.38189453 -28.02358459 46.44152344 -28.01893616 45.47265625 C-28.00715429 43.1516285 -27.99070361 40.83072918 -27.97010803 38.50976562 C-29.17667053 38.32414062 -29.17667053 38.32414062 -30.40760803 38.13476562 C-31.25323303 37.92851563 -32.09885803 37.72226562 -32.97010803 37.50976562 C-34.47900272 34.49197625 -34.47037079 32.88653925 -33.97010803 29.50976562 C-32.75697327 27.81689453 -32.75697327 27.81689453 -31.09120178 25.98632812 C-30.45488831 25.28588379 -29.81857483 24.58543945 -29.16297913 23.86376953 C-28.43933167 23.08694824 -27.7156842 22.31012695 -26.97010803 21.50976562 C-26.17298401 20.64657715 -25.37585999 19.78338867 -24.55458069 18.89404297 C-21.91155527 16.06798116 -19.22716724 13.28667454 -16.53260803 10.50976562 C-16.08006653 10.02556152 -15.62752502 9.54135742 -15.16127014 9.04248047 C-13.82706242 7.61687558 -12.46328079 6.21913228 -11.09901428 4.82226562 C-10.30567688 3.99339844 -9.51233948 3.16453125 -8.69496155 2.31054688 C-5.72619521 0.34857031 -3.5702997 -0.21443839 0 0 Z M-20.03260803 21.19726562 C-21.35035217 22.45893555 -21.35035217 22.45893555 -22.69471741 23.74609375 C-23.51907288 24.55884766 -24.34342834 25.37160156 -25.19276428 26.20898438 C-25.94307922 26.93947998 -26.69339417 27.66997559 -27.46644592 28.42260742 C-29.24216928 30.39277772 -29.24216928 30.39277772 -28.70619202 32.77856445 C-28.4632843 33.34986084 -28.22037659 33.92115723 -27.97010803 34.50976562 C-26.32010803 34.50976562 -24.67010803 34.50976562 -22.97010803 34.50976562 C-22.98058167 35.22632324 -22.9910553 35.94288086 -23.00184631 36.68115234 C-23.04332102 39.91565468 -23.06940695 43.15010116 -23.09510803 46.38476562 C-23.11186584 47.51269531 -23.12862366 48.640625 -23.14588928 49.80273438 C-23.15555725 51.41728516 -23.15555725 51.41728516 -23.16542053 53.06445312 C-23.17589417 54.05944824 -23.1863678 55.05444336 -23.19715881 56.07958984 C-23.21390205 58.69147979 -23.21390205 58.69147979 -20.97010803 60.50976562 C-18.75937826 60.75230376 -18.75937826 60.75230376 -16.34510803 60.63476562 C-15.52784241 60.61671875 -14.71057678 60.59867188 -13.86854553 60.58007812 C-13.24206116 60.556875 -12.61557678 60.53367188 -11.97010803 60.50976562 C-11.92112366 59.38957031 -11.87213928 58.269375 -11.82167053 57.11523438 C-11.74662947 55.6425536 -11.67108222 54.16989856 -11.59510803 52.69726562 C-11.56417053 51.95927734 -11.53323303 51.22128906 -11.50135803 50.4609375 C-11.29664656 46.69083448 -11.10576976 44.71325822 -8.97010803 41.50976562 C-5.81776428 41.04101562 -5.81776428 41.04101562 -2.03260803 41.00976562 C-0.78608459 40.97882812 0.46043884 40.94789062 1.74473572 40.91601562 C5.02989197 41.50976562 5.02989197 41.50976562 6.92832947 43.58398438 C8.24575442 47.08310243 8.54301191 50.09053248 8.71739197 53.82226562 C8.78313416 55.07652344 8.84887634 56.33078125 8.91661072 57.62304688 C8.97268494 59.05197266 8.97268494 59.05197266 9.02989197 60.50976562 C13.03998536 60.68841194 13.03998536 60.68841194 17.02989197 60.50976562 C19.27368598 58.69147979 19.27368598 58.69147979 19.25694275 56.07958984 C19.2412323 54.58709717 19.2412323 54.58709717 19.22520447 53.06445312 C19.2155365 51.44990234 19.2155365 51.44990234 19.20567322 49.80273438 C19.18891541 48.67480469 19.17215759 47.546875 19.15489197 46.38476562 C19.14586853 45.24910156 19.13684509 44.1134375 19.12754822 42.94335938 C19.10392295 40.13195264 19.0709821 37.32096264 19.02989197 34.50976562 C21.00989197 34.50976562 22.98989197 34.50976562 25.02989197 34.50976562 C25.02989197 29.95656117 24.17254258 29.19100487 21.09143066 26.09246826 C20.52584946 25.54439514 19.96026825 24.99632202 19.37754822 24.43164062 C18.80282272 23.86020325 18.22809723 23.28876587 17.63595581 22.70001221 C16.42072885 21.49520351 15.20075083 20.29517085 13.97642517 19.09960938 C12.09438067 17.26170768 10.22607932 15.41070727 8.35997009 13.55664062 C7.17910142 12.38919262 5.99748606 11.22249929 4.81504822 10.05664062 C3.96971275 9.22238556 3.96971275 9.22238556 3.1072998 8.37127686 C-4.86305767 0.59747748 -13.59032389 14.86325516 -20.03260803 21.19726562 Z " fill="#00D4C4" transform="translate(33.97010803222656,-0.509765625)"/>
</svg>
