<?xml version="1.0" encoding="UTF-8"?>
<svg version="1.1" xmlns="http://www.w3.org/2000/svg" width="64" height="64">
<path d="M0 0 C0.94166016 -0.02384766 1.88332031 -0.04769531 2.85351562 -0.07226562 C7.23414551 -0.06299118 9.88118197 0.15370918 13.6875 2.4375 C16.41910574 6.99017623 16.25699501 10.91298079 16.125 16.125 C16.13595703 17.07052734 16.14691406 18.01605469 16.15820312 18.99023438 C16.08531716 25.86581016 16.08531716 25.86581016 13.859375 28.83203125 C11.08552612 30.92185277 9.68709969 31.06549798 6.24609375 31.05859375 C5.23482422 31.05923828 4.22355469 31.05988281 3.18164062 31.06054688 C2.13169922 31.04056641 1.08175781 31.02058594 0 31 C-1.05380859 31.00708984 -2.10761719 31.01417969 -3.19335938 31.02148438 C-10.84683261 30.95799034 -10.84683261 30.95799034 -13.234375 29.359375 C-15.77282761 25.56817955 -14.90464138 20.53078723 -14.875 16.125 C-14.89498047 15.07505859 -14.91496094 14.02511719 -14.93554688 12.94335938 C-14.93490234 11.93208984 -14.93425781 10.92082031 -14.93359375 9.87890625 C-14.93544678 8.95537354 -14.9372998 8.03184082 -14.93920898 7.08032227 C-13.35608613 -0.86456631 -6.51846196 -0.07553773 0 0 Z M-8.4375 6.5625 C-9.91444068 9.51638136 -9.64680797 12.21411882 -9.6875 15.5 C-9.71328125 16.74652344 -9.7390625 17.99304688 -9.765625 19.27734375 C-9.66902577 22.44765643 -9.66902577 22.44765643 -8.36328125 24.48828125 C-5.38157851 26.15150286 -2.75243843 25.88235395 0.625 25.8125 C2.49865234 25.78929687 2.49865234 25.78929687 4.41015625 25.765625 C7.4635085 25.77398486 7.4635085 25.77398486 9.5625 24.5625 C9.58934312 21.74993719 9.60926188 18.93762759 9.625 16.125 C9.63337891 15.32255859 9.64175781 14.52011719 9.65039062 13.69335938 C9.6590143 11.64954779 9.6147815 9.60566098 9.5625 7.5625 C8.34821012 6.11861429 8.34821012 6.11861429 4.74609375 6.46484375 C3.16403318 6.47151911 1.58198841 6.48348125 0 6.5 C-0.80630859 6.50451172 -1.61261719 6.50902344 -2.44335938 6.51367188 C-4.44143756 6.52549482 -6.43947783 6.54343086 -8.4375 6.5625 Z " fill="#00D4C4" transform="translate(14.4375,33.4375)"/>
<path d="M0 0 C1.57491211 -0.0299707 1.57491211 -0.0299707 3.18164062 -0.06054688 C4.69854492 -0.05958008 4.69854492 -0.05958008 6.24609375 -0.05859375 C7.63139282 -0.06137329 7.63139282 -0.06137329 9.04467773 -0.06420898 C12.3728247 0.59896778 13.54166513 1.74459848 15.5625 4.4375 C16.36025228 7.88079599 16.1658552 11.34943654 16.125 14.875 C16.14884766 15.81666016 16.17269531 16.75832031 16.19726562 17.72851562 C16.18799118 22.10914551 15.97129082 24.75618197 13.6875 28.5625 C9.13482377 31.29410574 5.21201921 31.13199501 0 31 C-1.41829102 31.01643555 -1.41829102 31.01643555 -2.86523438 31.03320312 C-9.74081016 30.96031716 -9.74081016 30.96031716 -12.70703125 28.734375 C-14.79685277 25.96052612 -14.94049798 24.56209969 -14.93359375 21.12109375 C-14.93423828 20.10982422 -14.93488281 19.09855469 -14.93554688 18.05664062 C-14.91556641 17.00669922 -14.89558594 15.95675781 -14.875 14.875 C-14.88208984 13.82119141 -14.88917969 12.76738281 -14.89648438 11.68164062 C-14.83299034 4.02816739 -14.83299034 4.02816739 -13.234375 1.640625 C-9.44317955 -0.89782761 -4.40578723 -0.02964138 0 0 Z M-8.36328125 6.51171875 C-10.02650286 9.49342149 -9.75735395 12.12256157 -9.6875 15.5 C-9.67203125 16.74910156 -9.6565625 17.99820312 -9.640625 19.28515625 C-9.64898486 22.3385085 -9.64898486 22.3385085 -8.4375 24.4375 C-5.62493719 24.46434312 -2.81262759 24.48426188 0 24.5 C1.20366211 24.51256836 1.20366211 24.51256836 2.43164062 24.52539062 C4.47545221 24.5340143 6.51933902 24.4897815 8.5625 24.4375 C10.00638571 23.22321012 10.00638571 23.22321012 9.66015625 19.62109375 C9.65348089 18.03903318 9.64151875 16.45698841 9.625 14.875 C9.62048828 14.06869141 9.61597656 13.26238281 9.61132812 12.43164062 C9.59950518 10.43356244 9.58156914 8.43552217 9.5625 6.4375 C6.60861864 4.96055932 3.91088118 5.22819203 0.625 5.1875 C-0.62152344 5.16171875 -1.86804688 5.1359375 -3.15234375 5.109375 C-6.32265643 5.20597423 -6.32265643 5.20597423 -8.36328125 6.51171875 Z " fill="#00D4C4" transform="translate(14.4375,-0.4375)"/>
<path d="M0 0 C1.01126953 -0.00064453 2.02253906 -0.00128906 3.06445312 -0.00195312 C4.11439453 0.01802734 5.16433594 0.03800781 6.24609375 0.05859375 C7.29990234 0.05150391 8.35371094 0.04441406 9.43945312 0.03710938 C17.09365769 0.10060948 17.09365769 0.10060948 19.47827148 1.69921875 C22.02437503 5.49490887 21.19439464 10.51872885 21.18359375 14.93359375 C21.21195313 15.98353516 21.2403125 17.03347656 21.26953125 18.11523438 C21.2887224 25.64296156 21.2887224 25.64296156 18.77734375 29.18359375 C14.36214248 31.05670944 10.43525349 31.11712869 5.68359375 31.05859375 C4.79414062 31.08244141 3.9046875 31.10628906 2.98828125 31.13085938 C-1.26115893 31.1213457 -3.72077528 30.85753859 -7.40625 28.62109375 C-10.18641713 24.07276306 -10.01135528 20.16354075 -9.87890625 14.93359375 C-9.88986328 13.98806641 -9.90082031 13.04253906 -9.91210938 12.06835938 C-9.83922341 5.19278359 -9.83922341 5.19278359 -7.61328125 2.2265625 C-4.83943237 0.13674098 -3.44100594 -0.00690423 0 0 Z M-3.31640625 6.49609375 C-3.34324937 9.30865656 -3.36316813 12.12096616 -3.37890625 14.93359375 C-3.38728516 15.73603516 -3.39566406 16.53847656 -3.40429688 17.36523438 C-3.41292055 19.40904596 -3.36868775 21.45293277 -3.31640625 23.49609375 C-1.27374196 25.53875804 2.82050809 24.68117319 5.62109375 24.68359375 C6.36294922 24.69583984 7.10480469 24.70808594 7.86914062 24.72070312 C9.80873004 24.72597853 11.74783085 24.61798277 13.68359375 24.49609375 C16.54695746 21.63273004 15.98375562 19.54381029 15.99609375 15.55859375 C16.01285156 14.31207031 16.02960937 13.06554687 16.046875 11.78125 C15.91225807 8.61114889 15.91225807 8.61114889 14.60546875 6.5703125 C11.62654939 4.90526611 8.99662479 5.17627925 5.62109375 5.24609375 C3.74744141 5.26929688 3.74744141 5.26929688 1.8359375 5.29296875 C-1.21741475 5.28460889 -1.21741475 5.28460889 -3.31640625 6.49609375 Z " fill="#00D4C4" transform="translate(43.31640625,-0.49609375)"/>
<path d="M0 0 C1.33417969 -0.01643555 1.33417969 -0.01643555 2.6953125 -0.03320312 C6.59183302 0.01041464 9.48539596 0.34418314 13.09375 1.875 C16.22266781 6.28626117 15.64208974 10.86445023 15.5 16.125 C15.50386719 17.70571289 15.50386719 17.70571289 15.5078125 19.31835938 C15.4103993 26.95068334 15.4103993 26.95068334 13.79467773 29.359375 C10.00620412 31.89911081 4.96642916 31.02962888 0.5625 31 C-1.01241211 31.0299707 -1.01241211 31.0299707 -2.61914062 31.06054688 C-4.13604492 31.05958008 -4.13604492 31.05958008 -5.68359375 31.05859375 C-7.06889282 31.06137329 -7.06889282 31.06137329 -8.48217773 31.06420898 C-11.8103247 30.40103222 -12.97916513 29.25540152 -15 26.5625 C-15.79775228 23.11920401 -15.6033552 19.65056346 -15.5625 16.125 C-15.58634766 15.18333984 -15.61019531 14.24167969 -15.63476562 13.27148438 C-15.62544253 8.867874 -15.41862439 6.24736608 -13.08984375 2.4375 C-8.69214891 -0.23113909 -5.04940234 -0.13538253 0 0 Z M-9 7.5625 C-9.07325168 10.42517567 -9.09238205 13.263219 -9.0625 16.125 C-9.05798828 16.93130859 -9.05347656 17.73761719 -9.04882812 18.56835938 C-9.03700518 20.56643756 -9.01906914 22.56447783 -9 24.5625 C-6.04611864 26.03944068 -3.34838118 25.77180797 -0.0625 25.8125 C1.80728516 25.85117187 1.80728516 25.85117187 3.71484375 25.890625 C6.88515643 25.79402577 6.88515643 25.79402577 8.92578125 24.48828125 C10.58900286 21.50657851 10.31985395 18.87743843 10.25 15.5 C10.23453125 14.25089844 10.2190625 13.00179687 10.203125 11.71484375 C10.21148486 8.6614915 10.21148486 8.6614915 9 6.5625 C6.18743719 6.53565688 3.37512759 6.51573812 0.5625 6.5 C-0.23994141 6.49162109 -1.04238281 6.48324219 -1.86914062 6.47460938 C-5.74436907 6.0655304 -5.74436907 6.0655304 -9 7.5625 Z " fill="#00D4C4" transform="translate(49,33.4375)"/>
</svg>
