<?xml version="1.0" encoding="UTF-8"?>
<svg version="1.1" xmlns="http://www.w3.org/2000/svg" width="64" height="64">
<path d="M0 0 C0.79198288 0.00848969 1.58396576 0.01697937 2.39994812 0.02572632 C4.91778371 0.0591883 7.43235951 0.13444307 9.94921875 0.2109375 C11.66076087 0.24104691 13.37235345 0.26842103 15.08398438 0.29296875 C19.26947608 0.35895454 23.45254573 0.46241714 27.63671875 0.5859375 C28.01890642 2.24208407 28.35066977 3.91050774 28.63671875 5.5859375 C26.73369417 7.48896208 23.36009564 6.80730067 20.828125 6.8671875 C20.1462059 6.88559692 19.4642868 6.90400635 18.76170349 6.92297363 C16.5742986 6.98188689 14.38681432 7.03462264 12.19921875 7.0859375 C9.32535234 7.15351331 6.45173977 7.22721867 3.578125 7.3046875 C1.65528687 7.35012695 1.65528687 7.35012695 -0.30639648 7.39648438 C-3.27867777 7.38070642 -3.27867777 7.38070642 -5.36328125 8.5859375 C-5.36328125 24.4259375 -5.36328125 40.2659375 -5.36328125 56.5859375 C-2.41043405 58.0623611 0.32120858 57.80866689 3.61328125 57.90234375 C4.29852875 57.92312485 4.98377625 57.94390594 5.68978882 57.96531677 C7.88032944 58.03073935 10.07099064 58.08966304 12.26171875 58.1484375 C13.74610625 58.19162968 15.23048153 58.2352442 16.71484375 58.27929688 C20.35533959 58.38641303 23.99597126 58.48770112 27.63671875 58.5859375 C28.01890642 60.24208407 28.35066977 61.91050774 28.63671875 63.5859375 C25.86434942 66.35830683 16.36379086 64.95378746 12.45507812 64.9909668 C10.74979373 65.012526 9.04461938 65.04660492 7.33984375 65.09350586 C4.88100796 65.16056068 2.42446529 65.18797378 -0.03515625 65.20703125 C-1.17292511 65.24877724 -1.17292511 65.24877724 -2.3336792 65.29136658 C-6.28898633 65.27606413 -8.19602023 64.71532422 -11.34228516 62.28149414 C-14.56665874 57.66113734 -14.07778787 52.25679853 -14.02734375 46.8359375 C-14.0345192 45.13872559 -14.0345192 45.13872559 -14.0418396 43.40722656 C-14.04523498 41.02016811 -14.0360581 38.63306293 -14.01513672 36.24609375 C-13.98836903 32.5979009 -14.01490004 28.95278495 -14.046875 25.3046875 C-14.04357084 22.98176406 -14.03716449 20.65884253 -14.02734375 18.3359375 C-14.0374649 17.24829102 -14.04758606 16.16064453 -14.05801392 15.04003906 C-13.92768417 6.59500458 -13.92768417 6.59500458 -11.34448242 2.88818359 C-7.54195226 -0.04833753 -4.61321121 -0.18756734 0 0 Z " fill="#E04964" transform="translate(17.36328125,-0.5859375)"/>
<path d="M0 0 C5.57126574 0.0516815 8.64925212 3.98652557 12.3125 7.6875 C12.95767578 8.30044922 13.60285156 8.91339844 14.26757812 9.54492188 C17.02560648 12.29711313 18.77873885 14.20594129 19.8359375 18 C18.56098446 22.57553239 15.69701377 25.09704286 12.3125 28.3125 C11.37374023 29.26092773 11.37374023 29.26092773 10.41601562 30.22851562 C7.74184458 32.84108273 5.70446116 34.74056396 2.16796875 36.04296875 C0 36 0 36 -2 34 C-2.0625 31.8125 -2.0625 31.8125 -1 29 C1.31 26.69 3.62 24.38 6 22 C-1.92 21.67 -9.84 21.34 -18 21 C-18 19.02 -18 17.04 -18 15 C-10.08 14.67 -2.16 14.34 6 14 C3.36 11.36 0.72 8.72 -2 6 C-1 1 -1 1 0 0 Z " fill="#E14A63" transform="translate(41,14)"/>
</svg>
