<?xml version="1.0" encoding="UTF-8"?>
<svg version="1.1" xmlns="http://www.w3.org/2000/svg" width="64" height="64">
<path d="M0 0 C3.99689259 2.06155513 6.51557491 4.04673652 8.04296875 8.26953125 C8.58588375 13.3392868 8.70531837 17.73408441 6.66796875 22.45703125 C6.13171875 23.05515625 5.59546875 23.65328125 5.04296875 24.26953125 C4.38296875 24.26953125 3.72296875 24.26953125 3.04296875 24.26953125 C3.04296875 24.92953125 3.04296875 25.58953125 3.04296875 26.26953125 C3.90921875 26.49640625 4.77546875 26.72328125 5.66796875 26.95703125 C11.89283526 29.37781267 15.5374134 32.95666862 18.296875 38.93359375 C19.68326721 43.27423534 19.87642913 47.73965347 20.04296875 52.26953125 C18.06296875 52.76453125 18.06296875 52.76453125 16.04296875 53.26953125 C15.89601563 52.07457031 15.89601563 52.07457031 15.74609375 50.85546875 C14.67518906 43.26681654 13.36770034 38.41927697 7.66796875 33.01953125 C1.86357243 29.1499337 -4.12301955 28.30614634 -10.95703125 29.26953125 C-16.72279676 31.14403266 -21.77751228 33.86636504 -25.0625 39.08984375 C-26.91646578 43.60736736 -27.42626565 48.44510958 -27.95703125 53.26953125 C-28.94703125 53.26953125 -29.93703125 53.26953125 -30.95703125 53.26953125 C-31.40088657 45.87194259 -31.78286947 39.28842391 -26.95703125 33.26953125 C-23.31813195 29.86179154 -19.91427867 27.23221099 -14.95703125 26.26953125 C-15.78203125 25.34140625 -16.60703125 24.41328125 -17.45703125 23.45703125 C-20.88860305 18.67037854 -20.74073322 13.94916914 -19.95703125 8.26953125 C-18.42963741 4.04673652 -15.91095509 2.06155513 -11.9140625 0 C-7.81672406 -1.52934588 -4.09733844 -1.52934588 0 0 Z M-14.95703125 7.26953125 C-16.95970146 11.51519209 -17.17885244 13.48663294 -15.89453125 18.01953125 C-13.81442863 21.50873565 -12.70206108 22.78893806 -8.95703125 24.26953125 C-5.01150636 24.85716262 -3.27239932 24.43328006 0.29296875 22.58203125 C3.21207597 20.12732745 4.25155254 18.96280688 5.04296875 15.26953125 C4.95669452 11.12836845 4.34640283 9.61964749 1.60546875 6.45703125 C-1.15440284 4.10104331 -2.14750136 3.36152328 -5.70703125 2.95703125 C-9.90623592 3.36080093 -11.80698299 4.47744302 -14.95703125 7.26953125 Z " fill="#00D4C4" transform="translate(30.95703125,5.73046875)"/>
<path d="M0 0 C2.91916538 -0.34751969 5.13195476 -0.53280018 7.69921875 1.04296875 C9.88339965 2.84637235 11.72206192 4.44412384 13 7 C13.35512837 12.4157076 13.36699949 15.51066735 10 20 C10.54269531 20.36351563 11.08539063 20.72703125 11.64453125 21.1015625 C16.10252623 24.23420762 19.34145005 26.60971268 21 32 C21.21634718 35.35086559 21.1788419 38.64837031 21 42 C20.01 42 19.02 42 18 42 C17.90203125 41.33613281 17.8040625 40.67226563 17.703125 39.98828125 C16.80520244 34.68589374 16.11353636 30.77074166 12 27 C8.05196454 24.59684798 4.57601194 23.54476333 0 23 C0 21.68 0 20.36 0 19 C1.7015625 18.319375 1.7015625 18.319375 3.4375 17.625 C7.04721692 16.42904194 7.04721692 16.42904194 8 14 C8.41655222 9.89408669 8.41655222 9.89408669 6.8125 6.25 C4.64807327 4.75729191 2.47468755 3.86948482 0 3 C0 2.01 0 1.02 0 0 Z " fill="#00D4C4" transform="translate(43,11)"/>
</svg>
