<?xml version="1.0" encoding="UTF-8"?>
<svg version="1.1" xmlns="http://www.w3.org/2000/svg" width="64" height="64">
<path d="M0 0 C1.43054593 -0.04911883 2.86041321 -0.13028192 4.28710938 -0.24609375 C12.54944697 -0.91147808 18.73305611 0.05742696 25.38180542 5.28903198 C31.53937928 10.9183541 34.66598609 16.09490168 35.4041748 24.47225952 C35.56138007 29.60288198 35.33126411 34.6780847 35.05078125 39.80029297 C35.00114745 41.9225434 34.95813229 44.04495937 34.921875 46.16748047 C34.82074788 50.02206915 34.71708816 53.87492066 34.50439453 57.72509766 C34.46581329 58.49037781 34.42723206 59.25565796 34.38748169 60.04412842 C33.79944883 62.59922815 33.04334124 63.51950561 30.92578125 65.05029297 C28.91479492 65.4312439 28.91479492 65.4312439 26.59375 65.43847656 C25.72274658 65.44793304 24.85174316 65.45738953 23.9543457 65.46713257 C23.01679443 65.46105988 22.07924316 65.45498718 21.11328125 65.44873047 C20.14801514 65.45160065 19.18274902 65.45447083 18.18823242 65.45742798 C16.14729221 65.45946958 14.10633248 65.45393304 12.06542969 65.44140625 C8.93770685 65.42535417 5.81127629 65.44125192 2.68359375 65.46044922 C0.70182006 65.4584668 -1.27995283 65.45462317 -3.26171875 65.44873047 C-4.19927002 65.45480316 -5.13682129 65.46087585 -6.1027832 65.46713257 C-6.97378662 65.45767609 -7.84479004 65.4482196 -8.7421875 65.43847656 C-9.50813232 65.43608978 -10.27407715 65.433703 -11.06323242 65.4312439 C-13.70763734 64.9303014 -14.55263191 64.26779048 -16.07421875 62.05029297 C-16.45516968 59.5078125 -16.45516968 59.5078125 -16.46240234 56.43310547 C-16.47185883 55.28181152 -16.48131531 54.13051758 -16.49105835 52.94433594 C-16.48498566 51.70055176 -16.47891296 50.45676758 -16.47265625 49.17529297 C-16.47552643 47.89928223 -16.47839661 46.62327148 -16.48135376 45.30859375 C-16.4833971 42.60825181 -16.47935267 39.90872216 -16.46533203 37.20849609 C-16.44823964 33.74810067 -16.45808182 30.28840326 -16.47604942 26.82803345 C-16.48949891 23.52709491 -16.48008119 20.22624061 -16.47265625 16.92529297 C-16.47872894 15.68150879 -16.48480164 14.43772461 -16.49105835 13.15625 C-16.47687363 11.42930908 -16.47687363 11.42930908 -16.46240234 9.66748047 C-16.46001556 8.65282715 -16.45762878 7.63817383 -16.45516968 6.59277344 C-16.07421875 4.05029297 -16.07421875 4.05029297 -14.73995972 2.23538208 C-10.75734366 -0.59804462 -4.76386141 0.11909654 0 0 Z M-11.07421875 6.05029297 C-11.17297045 7.73284532 -11.20220779 9.41953325 -11.20361328 11.10498047 C-11.20676544 12.18279785 -11.2099176 13.26061523 -11.21316528 14.37109375 C-11.21114105 15.54397949 -11.20911682 16.71686523 -11.20703125 17.92529297 C-11.20798798 19.12009277 -11.2089447 20.31489258 -11.20993042 21.54589844 C-11.21061246 24.07796277 -11.20875653 26.61002884 -11.20458984 29.14208984 C-11.19924196 33.03340557 -11.20453408 36.92460586 -11.2109375 40.81591797 C-11.21027672 43.26904323 -11.20899557 45.72216841 -11.20703125 48.17529297 C-11.20905548 49.34817871 -11.21107971 50.52106445 -11.21316528 51.72949219 C-11.21001312 52.80730957 -11.20686096 53.88512695 -11.20361328 54.99560547 C-11.20281769 55.94967285 -11.20202209 56.90374023 -11.20120239 57.88671875 C-11.31582723 60.03017186 -11.31582723 60.03017186 -10.07421875 61.05029297 C-7.27428278 61.15132552 -4.49953231 61.18999385 -1.69921875 61.18310547 C-0.85955566 61.18406219 -0.01989258 61.18501892 0.84521484 61.18600464 C2.6240242 61.18668644 4.40283602 61.18483213 6.18164062 61.18066406 C8.91411901 61.1753158 11.64643301 61.18060902 14.37890625 61.18701172 C16.10286495 61.18635094 17.82682354 61.18506977 19.55078125 61.18310547 C20.37368652 61.1851297 21.1965918 61.18715393 22.04443359 61.1892395 C25.78957991 61.53604757 25.78957991 61.53604757 28.92578125 60.05029297 C29.01446424 57.09323976 29.04098421 54.15964241 29.0234375 51.20263672 C29.02202255 50.31620987 29.0206076 49.42978302 29.01914978 48.51649475 C29.0135334 45.67356043 29.00097816 42.83070366 28.98828125 39.98779297 C28.98326836 38.06526806 28.97870509 36.14274192 28.97460938 34.22021484 C28.96355866 29.49687748 28.94628308 24.77359839 28.92578125 20.05029297 C28.08273438 20.01291016 27.2396875 19.97552734 26.37109375 19.93701172 C25.27539062 19.87126953 24.1796875 19.80552734 23.05078125 19.73779297 C21.96023437 19.67978516 20.8696875 19.62177734 19.74609375 19.56201172 C18.81539062 19.39314453 17.8846875 19.22427734 16.92578125 19.05029297 C14.73583877 15.76537924 14.57300786 14.21933658 14.30078125 10.36279297 C14.22601563 9.36892578 14.15125 8.37505859 14.07421875 7.35107422 C14.02523437 6.59181641 13.97625 5.83255859 13.92578125 5.05029297 C9.94662966 5.02142313 5.96750472 5.00353891 1.98828125 4.98779297 C0.85197266 4.97941406 -0.28433594 4.97103516 -1.45507812 4.96240234 C-2.53466797 4.95917969 -3.61425781 4.95595703 -4.7265625 4.95263672 C-5.72679443 4.9473999 -6.72702637 4.94216309 -7.75756836 4.93676758 C-10.03629103 4.78848202 -10.03629103 4.78848202 -11.07421875 6.05029297 Z M18.92578125 9.05029297 C18.92578125 11.03029297 18.92578125 13.01029297 18.92578125 15.05029297 C21.23578125 15.38029297 23.54578125 15.71029297 25.92578125 16.05029297 C24.95012013 14.8806931 23.97015625 13.7146812 22.98828125 12.55029297 C22.17037109 11.57576172 22.17037109 11.57576172 21.3359375 10.58154297 C20.87058594 10.07623047 20.40523437 9.57091797 19.92578125 9.05029297 C19.59578125 9.05029297 19.26578125 9.05029297 18.92578125 9.05029297 Z " fill="#00D3C4" transform="translate(23.07421875,-1.05029296875)"/>
<path d="M0 0 C1.084021 0.00523682 2.16804199 0.01047363 3.28491211 0.01586914 C5.03964844 0.02070312 5.03964844 0.02070312 6.82983398 0.02563477 C8.67738281 0.03820313 8.67738281 0.03820313 10.56225586 0.05102539 C12.41560547 0.05779297 12.41560547 0.05779297 14.30639648 0.06469727 C17.37089703 0.07652931 20.43530307 0.09301366 23.49975586 0.11352539 C23.82975586 1.10352539 24.15975586 2.09352539 24.49975586 3.11352539 C24.16975586 3.77352539 23.83975586 4.43352539 23.49975586 5.11352539 C14.91975586 5.11352539 6.33975586 5.11352539 -2.50024414 5.11352539 C-2.83024414 3.79352539 -3.16024414 2.47352539 -3.50024414 1.11352539 C-2.50024414 0.11352539 -2.50024414 0.11352539 0 0 Z " fill="#00D5C5" transform="translate(21.500244140625,40.886474609375)"/>
<path d="M0 0 C1.084021 0.00523682 2.16804199 0.01047363 3.28491211 0.01586914 C5.03964844 0.02070313 5.03964844 0.02070313 6.82983398 0.02563477 C8.67738281 0.03820312 8.67738281 0.03820312 10.56225586 0.05102539 C12.41560547 0.05779297 12.41560547 0.05779297 14.30639648 0.06469727 C17.37089703 0.07652931 20.43530307 0.09301366 23.49975586 0.11352539 C23.82975586 1.10352539 24.15975586 2.09352539 24.49975586 3.11352539 C24.16975586 3.77352539 23.83975586 4.43352539 23.49975586 5.11352539 C14.91975586 5.11352539 6.33975586 5.11352539 -2.50024414 5.11352539 C-2.83024414 3.79352539 -3.16024414 2.47352539 -3.50024414 1.11352539 C-2.50024414 0.11352539 -2.50024414 0.11352539 0 0 Z " fill="#00D5C5" transform="translate(21.500244140625,25.886474609375)"/>
<path d="M0 0 C8.58 0 17.16 0 26 0 C26 1.32 26 2.64 26 4 C17.42 4 8.84 4 0 4 C0 2.68 0 1.36 0 0 Z " fill="#00D3C4" transform="translate(19,34)"/>
<path d="M0 0 C6.27 0 12.54 0 19 0 C19 1.32 19 2.64 19 4 C12.73 4 6.46 4 0 4 C0 2.68 0 1.36 0 0 Z " fill="#00D4C4" transform="translate(19,49)"/>
</svg>
